name p15_grf_mean_speed_1.2
datacolumns 13
datarows 68
range 0.0000000000 0.6700000000
endheader
time	grf_x_l_mean	grf_x_l_var	grf_y_l_mean	grf_y_l_var	grf_z_l_mean	grf_z_l_var	grf_x_r_mean	grf_x_r_var	grf_y_r_mean	grf_y_r_var	grf_z_r_mean	grf_z_r_var
0.0000000000	96.5302848351	1.0000000000	784.7643120055	1.0000000000	0.0000000000	0.0000000000	16.8865732188	1.0000000000	10.9385297144	1.0000000000	0.0000000000	0.0000000000
0.0100000000	103.4772644516	1.0000000000	777.1028431381	1.0000000000	0.0000000000	0.0000000000	27.1040168323	1.0000000000	41.9987972398	1.0000000000	0.0000000000	0.0000000000
0.0200000000	112.5242321524	1.0000000000	762.7177723916	1.0000000000	0.0000000000	0.0000000000	33.9592518223	1.0000000000	91.9077693883	1.0000000000	0.0000000000	0.0000000000
0.0300000000	122.4136935303	1.0000000000	739.6099869240	1.0000000000	0.0000000000	0.0000000000	28.8723071969	1.0000000000	158.1100169641	1.0000000000	0.0000000000	0.0000000000
0.0400000000	131.7551017370	1.0000000000	705.4288776983	1.0000000000	0.0000000000	0.0000000000	10.2830926190	1.0000000000	235.3204178861	1.0000000000	0.0000000000	0.0000000000
0.0500000000	140.0314313702	1.0000000000	658.8015952985	1.0000000000	0.0000000000	0.0000000000	-14.9651683814	1.0000000000	315.9486472873	1.0000000000	0.0000000000	0.0000000000
0.0600000000	145.1673471758	1.0000000000	598.3264129772	1.0000000000	0.0000000000	0.0000000000	-41.7340625099	1.0000000000	388.8654396137	1.0000000000	0.0000000000	0.0000000000
0.0700000000	143.7024483693	1.0000000000	523.0681928811	1.0000000000	0.0000000000	0.0000000000	-66.7954222288	1.0000000000	445.4820573761	1.0000000000	0.0000000000	0.0000000000
0.0800000000	134.0596174077	1.0000000000	436.1239796296	1.0000000000	0.0000000000	0.0000000000	-86.5315606716	1.0000000000	484.8566773799	1.0000000000	0.0000000000	0.0000000000
0.0900000000	115.8962912269	1.0000000000	344.3946271699	1.0000000000	0.0000000000	0.0000000000	-100.7546124884	1.0000000000	513.1455900754	1.0000000000	0.0000000000	0.0000000000
0.1000000000	89.8599720918	1.0000000000	255.6375695900	1.0000000000	0.0000000000	0.0000000000	-111.0439790539	1.0000000000	538.2974525655	1.0000000000	0.0000000000	0.0000000000
0.1100000000	61.1521659156	1.0000000000	177.6274133879	1.0000000000	0.0000000000	0.0000000000	-117.1606577026	1.0000000000	565.7576077339	1.0000000000	0.0000000000	0.0000000000
0.1200000000	35.4724377152	1.0000000000	116.5660090668	1.0000000000	0.0000000000	0.0000000000	-119.3266121590	1.0000000000	597.7990013927	1.0000000000	0.0000000000	0.0000000000
0.1300000000	16.4189012937	1.0000000000	73.5526809468	1.0000000000	0.0000000000	0.0000000000	-119.1186530990	1.0000000000	632.8697985927	1.0000000000	0.0000000000	0.0000000000
0.1400000000	5.4186591109	1.0000000000	45.1507830761	1.0000000000	0.0000000000	0.0000000000	-115.9283669170	1.0000000000	667.0105903495	1.0000000000	0.0000000000	0.0000000000
0.1500000000	0.3214181990	1.0000000000	27.1114437955	1.0000000000	0.0000000000	0.0000000000	-110.1004625598	1.0000000000	697.3667708020	1.0000000000	0.0000000000	0.0000000000
0.1600000000	-1.5405250746	1.0000000000	16.3661933848	1.0000000000	0.0000000000	0.0000000000	-103.2201700100	1.0000000000	722.5725401146	1.0000000000	0.0000000000	0.0000000000
0.1700000000	-0.8268851740	1.0000000000	10.3751465142	1.0000000000	0.0000000000	0.0000000000	-95.3222613962	1.0000000000	741.2500038015	1.0000000000	0.0000000000	0.0000000000
0.1800000000	0.6963258926	1.0000000000	7.1808685416	1.0000000000	0.0000000000	0.0000000000	-86.7785243762	1.0000000000	752.2010316352	1.0000000000	0.0000000000	0.0000000000
0.1900000000	1.6581203280	1.0000000000	5.7442809447	1.0000000000	0.0000000000	0.0000000000	-78.5994014138	1.0000000000	754.8664632760	1.0000000000	0.0000000000	0.0000000000
0.2000000000	2.4583407672	1.0000000000	5.2231165937	1.0000000000	0.0000000000	0.0000000000	-70.3921548590	1.0000000000	749.5787725360	1.0000000000	0.0000000000	0.0000000000
0.2100000000	2.9572029461	1.0000000000	4.8888469721	1.0000000000	0.0000000000	0.0000000000	-62.4500705336	1.0000000000	737.6604968378	1.0000000000	0.0000000000	0.0000000000
0.2200000000	2.9906909838	1.0000000000	4.4412773112	1.0000000000	0.0000000000	0.0000000000	-55.2579381479	1.0000000000	720.6535137511	1.0000000000	0.0000000000	0.0000000000
0.2300000000	3.1467949737	1.0000000000	3.9002694685	1.0000000000	0.0000000000	0.0000000000	-48.0734133725	1.0000000000	699.9362700916	1.0000000000	0.0000000000	0.0000000000
0.2400000000	3.1064982370	1.0000000000	3.1830795539	1.0000000000	0.0000000000	0.0000000000	-40.8769821814	1.0000000000	676.9994618409	1.0000000000	0.0000000000	0.0000000000
0.2500000000	2.6829542983	1.0000000000	2.2652041905	1.0000000000	0.0000000000	0.0000000000	-34.2793618081	1.0000000000	653.7184742261	1.0000000000	0.0000000000	0.0000000000
0.2600000000	2.4898512440	1.0000000000	1.3179711792	1.0000000000	0.0000000000	0.0000000000	-28.0194567377	1.0000000000	631.9544984266	1.0000000000	0.0000000000	0.0000000000
0.2700000000	2.2980709980	1.0000000000	0.4657037573	1.0000000000	0.0000000000	0.0000000000	-22.1445482647	1.0000000000	612.7330853088	1.0000000000	0.0000000000	0.0000000000
0.2800000000	0.0000000000	1.0000000000	0.0000000000	1.0000000000	0.0000000000	0.0000000000	-16.8566362270	1.0000000000	596.3752531692	1.0000000000	0.0000000000	0.0000000000
0.2900000000	0.0000000000	1.0000000000	0.0000000000	1.0000000000	0.0000000000	0.0000000000	-11.9286655607	1.0000000000	583.6753605771	1.0000000000	0.0000000000	0.0000000000
0.3000000000	0.0000000000	1.0000000000	0.0000000000	1.0000000000	0.0000000000	0.0000000000	-7.4322168809	1.0000000000	575.4873980726	1.0000000000	0.0000000000	0.0000000000
0.3100000000	0.0000000000	1.0000000000	0.0000000000	1.0000000000	0.0000000000	0.0000000000	-3.3871121636	1.0000000000	571.3590713937	1.0000000000	0.0000000000	0.0000000000
0.3200000000	0.0000000000	1.0000000000	0.0000000000	1.0000000000	0.0000000000	0.0000000000	0.6434810430	1.0000000000	570.4344845095	1.0000000000	0.0000000000	0.0000000000
0.3300000000	0.0000000000	1.0000000000	0.0000000000	1.0000000000	0.0000000000	0.0000000000	4.4488691333	1.0000000000	572.8140972386	1.0000000000	0.0000000000	0.0000000000
0.3400000000	0.0000000000	1.0000000000	0.0000000000	1.0000000000	0.0000000000	0.0000000000	8.1462755390	1.0000000000	578.6394885556	1.0000000000	0.0000000000	0.0000000000
0.3500000000	0.0000000000	1.0000000000	0.0000000000	1.0000000000	0.0000000000	0.0000000000	12.1975133658	1.0000000000	587.1038289867	1.0000000000	0.0000000000	0.0000000000
0.3600000000	0.0000000000	1.0000000000	0.0000000000	1.0000000000	0.0000000000	0.0000000000	16.5269482763	1.0000000000	597.2167513590	1.0000000000	0.0000000000	0.0000000000
0.3700000000	0.0000000000	1.0000000000	0.0000000000	1.0000000000	0.0000000000	0.0000000000	21.3001545030	1.0000000000	608.3951250062	1.0000000000	0.0000000000	0.0000000000
0.3800000000	0.0000000000	1.0000000000	0.0000000000	1.0000000000	0.0000000000	0.0000000000	26.8169192421	1.0000000000	620.4094122464	1.0000000000	0.0000000000	0.0000000000
0.3900000000	0.0000000000	1.0000000000	0.0000000000	1.0000000000	0.0000000000	0.0000000000	32.6880789028	1.0000000000	633.3606346457	1.0000000000	0.0000000000	0.0000000000
0.4000000000	0.0000000000	1.0000000000	0.0000000000	1.0000000000	0.0000000000	0.0000000000	38.9771370710	1.0000000000	647.3382453693	1.0000000000	0.0000000000	0.0000000000
0.4100000000	0.0000000000	1.0000000000	0.0000000000	1.0000000000	0.0000000000	0.0000000000	45.8333894009	1.0000000000	662.4025387742	1.0000000000	0.0000000000	0.0000000000
0.4200000000	0.0000000000	1.0000000000	0.0000000000	1.0000000000	0.0000000000	0.0000000000	52.5143187050	1.0000000000	679.2021317974	1.0000000000	0.0000000000	0.0000000000
0.4300000000	0.0000000000	1.0000000000	0.0000000000	1.0000000000	0.0000000000	0.0000000000	58.7251846487	1.0000000000	698.2678448382	1.0000000000	0.0000000000	0.0000000000
0.4400000000	0.0000000000	1.0000000000	0.0000000000	1.0000000000	0.0000000000	0.0000000000	64.4455158936	1.0000000000	718.5887004957	1.0000000000	0.0000000000	0.0000000000
0.4500000000	0.0000000000	1.0000000000	0.0000000000	1.0000000000	0.0000000000	0.0000000000	69.2155286002	1.0000000000	738.4358820694	1.0000000000	0.0000000000	0.0000000000
0.4600000000	0.0000000000	1.0000000000	0.0000000000	1.0000000000	0.0000000000	0.0000000000	73.4255947927	1.0000000000	756.9715697653	1.0000000000	0.0000000000	0.0000000000
0.4700000000	0.0000000000	1.0000000000	0.0000000000	1.0000000000	0.0000000000	0.0000000000	77.8505150577	1.0000000000	773.8125919920	1.0000000000	0.0000000000	0.0000000000
0.4800000000	0.0000000000	1.0000000000	0.0000000000	1.0000000000	0.0000000000	0.0000000000	82.7213287696	1.0000000000	787.8388272196	1.0000000000	0.0000000000	0.0000000000
0.4900000000	0.0000000000	1.0000000000	0.0000000000	1.0000000000	0.0000000000	0.0000000000	88.8501595909	1.0000000000	797.3112457539	1.0000000000	0.0000000000	0.0000000000
0.5000000000	13.9858867964	1.0000000000	11.5918768225	1.0000000000	0.0000000000	0.0000000000	97.1467003770	1.0000000000	800.6249400941	1.0000000000	0.0000000000	0.0000000000
0.5100000000	24.0938786568	1.0000000000	41.8483317968	1.0000000000	0.0000000000	0.0000000000	107.4276755527	1.0000000000	796.3963919142	1.0000000000	0.0000000000	0.0000000000
0.5200000000	32.3104297930	1.0000000000	90.0046692515	1.0000000000	0.0000000000	0.0000000000	119.5322792758	1.0000000000	782.8384578417	1.0000000000	0.0000000000	0.0000000000
0.5300000000	30.6139404715	1.0000000000	152.9034279147	1.0000000000	0.0000000000	0.0000000000	132.7899204428	1.0000000000	757.3160786033	1.0000000000	0.0000000000	0.0000000000
0.5400000000	14.6823807198	1.0000000000	225.2925428031	1.0000000000	0.0000000000	0.0000000000	144.6247071849	1.0000000000	716.9480250093	1.0000000000	0.0000000000	0.0000000000
0.5500000000	-9.6584647712	1.0000000000	303.2254826307	1.0000000000	0.0000000000	0.0000000000	153.2848213632	1.0000000000	660.1317807735	1.0000000000	0.0000000000	0.0000000000
0.5600000000	-35.6950241434	1.0000000000	380.8807480339	1.0000000000	0.0000000000	0.0000000000	156.8006336278	1.0000000000	587.0311069882	1.0000000000	0.0000000000	0.0000000000
0.5700000000	-61.1599576850	1.0000000000	450.0394640125	1.0000000000	0.0000000000	0.0000000000	150.7710273907	1.0000000000	499.1154947688	1.0000000000	0.0000000000	0.0000000000
0.5800000000	-82.7962156371	1.0000000000	504.9567967268	1.0000000000	0.0000000000	0.0000000000	133.9468378815	1.0000000000	401.1761238227	1.0000000000	0.0000000000	0.0000000000
0.5900000000	-98.4691234100	1.0000000000	545.9350792956	1.0000000000	0.0000000000	0.0000000000	108.3767092588	1.0000000000	302.7748151927	1.0000000000	0.0000000000	0.0000000000
0.6000000000	-109.9604812072	1.0000000000	577.5591292253	1.0000000000	0.0000000000	0.0000000000	76.9439981072	1.0000000000	214.3088945988	1.0000000000	0.0000000000	0.0000000000
0.6100000000	-117.1094576571	1.0000000000	604.5249582779	1.0000000000	0.0000000000	0.0000000000	46.4553124798	1.0000000000	142.1936640065	1.0000000000	0.0000000000	0.0000000000
0.6200000000	-119.8040609730	1.0000000000	630.0306181390	1.0000000000	0.0000000000	0.0000000000	23.3664956569	1.0000000000	89.1116499042	1.0000000000	0.0000000000	0.0000000000
0.6300000000	-120.2276311330	1.0000000000	654.8636401673	1.0000000000	0.0000000000	0.0000000000	8.0801038326	1.0000000000	54.5748963873	1.0000000000	0.0000000000	0.0000000000
0.6400000000	-117.9102404033	1.0000000000	677.4865459782	1.0000000000	0.0000000000	0.0000000000	-0.2705193973	1.0000000000	33.9550918341	1.0000000000	0.0000000000	0.0000000000
0.6500000000	-112.1951722587	1.0000000000	696.5268889977	1.0000000000	0.0000000000	0.0000000000	-3.2032067736	1.0000000000	21.4676661147	1.0000000000	0.0000000000	0.0000000000
0.6600000000	-105.3137957807	1.0000000000	711.8008657556	1.0000000000	0.0000000000	0.0000000000	-3.4350276800	1.0000000000	14.0576610801	1.0000000000	0.0000000000	0.0000000000
0.6700000000	-97.0498923424	1.0000000000	722.8951765178	1.0000000000	0.0000000000	0.0000000000	-1.8886210761	1.0000000000	9.8723926914	1.0000000000	0.0000000000	0.0000000000
